<svg viewBox="0 0 162 141" fill="none" xmlns="http://www.w3.org/2000/svg">
<path d="M143.076 13.0353L130.119 0L117.083 13.0353L104.048 0L91.0908 13.0353L78.0556 0L65.0203 13.0353L52.0631 0L39.0278 13.0353L25.9925 0L13.0353 13.0353L0 0V124.889C0 129.029 1.64474 133 4.57239 135.928C7.50004 138.855 11.4708 140.5 15.6111 140.5H84.3C80.3192 133.631 78.0556 125.591 78.0556 117.083C78.0556 107.483 80.9436 98.5842 85.8611 91.1689V78.0556H98.9744C106.39 73.1381 115.288 70.25 124.889 70.25C136.831 70.25 147.759 74.7772 156.111 81.9584V0L143.076 13.0353ZM70.25 124.889H15.6111V78.0556H70.25V124.889ZM140.5 62.4445H15.6111V39.0278H140.5V62.4445Z" fill="white"/>
<path d="M160.654 113.737C158.362 107.468 151.965 103.725 143.536 103.725C143.206 103.725 142.89 103.733 142.574 103.747L142.515 96.1708L155.461 93.9416C155.883 93.8718 155.949 93.5046 155.861 93.0932C155.777 92.6856 155.248 89.8504 155.171 89.5088C155.071 89.0277 154.796 89.0424 154.41 89.1085C154.028 89.1746 142.475 90.8016 142.475 90.8016L142.427 83.17C142.423 82.711 142.174 82.5898 141.714 82.5971L137.95 82.6559C137.564 82.6632 137.348 82.8358 137.355 83.1994L137.476 91.672C137.476 91.672 126.235 93.6074 125.93 93.6662C125.621 93.7176 125.306 93.8608 125.375 94.1913C125.445 94.5219 126.073 98.2091 126.139 98.4955C126.205 98.7894 126.404 98.9693 126.83 98.8885L137.568 97.0375L137.697 104.449C133.741 105.481 131.082 107.475 129.411 109.234C126.591 112.198 124.979 116.164 124.979 120.116C124.979 125.94 128.545 129.404 133.528 130.013C145.141 131.435 152.328 118.775 154.715 112.697C158.744 118.228 155.655 128.688 147.025 134.659C146.867 134.766 146.665 135.133 146.904 135.419L149.177 138.196C149.471 138.548 149.934 138.412 150.117 138.28C159.335 131.927 163.562 121.699 160.654 113.737ZM133.528 125.445C129.981 125 130.061 122.088 130.061 120.108C130.061 117.27 131.262 114.306 133.279 112.19C134.537 110.877 136.081 109.873 137.792 109.256L138.093 124.964C136.679 125.445 135.159 125.643 133.528 125.445ZM142.442 123.414L142.611 108.323C142.919 108.309 143.22 108.287 143.536 108.287C146.375 108.287 149.023 108.819 150.459 109.612C151.895 110.409 146.702 119.576 142.442 123.414ZM109.572 95.2527C109.53 95.0957 109.436 94.9576 109.305 94.8609C109.175 94.7642 109.015 94.7146 108.853 94.7202H101.691C101.53 94.7148 101.372 94.7641 101.242 94.8601C101.113 94.9562 101.02 95.0933 100.979 95.249L88.1394 135.798C88.077 135.985 88.099 136.077 88.3671 136.077H94.7316C95.0071 136.077 95.0952 135.992 95.1503 135.812L98.8522 123.627H111.691L115.393 135.812C115.452 135.992 115.537 136.077 115.808 136.077H122.177C122.441 136.077 122.463 135.985 122.404 135.798C122.353 135.614 111.082 100.023 109.572 95.2527ZM99.9577 118.456L105.272 99.175L110.586 118.456H99.9577Z" fill="white"/>
</svg>
