<svg viewBox="0 0 40 40" fill="none" xmlns="http://www.w3.org/2000/svg">
  <g clip-path="url(#clip0_105_204)">
  <path d="M0.272461 7.57652V29.4887C0.272461 34.8431 4.6568 39.2275 10.0112 39.2275H31.9234V39.1419C36.108 38.5332 39.3226 34.8431 39.2275 30.5254V17.3153C39.2275 13.2828 35.9559 10.0112 31.9234 10.0112H27.054V7.57652C27.054 3.54407 23.7824 0.272461 19.75 0.272461H7.57652C3.54407 0.272461 0.272461 3.54407 0.272461 7.57652ZM7.57652 5.14184H19.75C21.0909 5.14184 22.1847 6.23554 22.1847 7.57652V30.5729C22.1847 31.9329 22.5175 33.2073 23.0786 34.3581H10.0112C7.29121 34.3581 5.14184 32.2087 5.14184 29.4887V7.57652C5.14184 6.23554 6.23554 5.14184 7.57652 5.14184ZM7.57652 7.57652V12.4459H19.75V7.57652H7.57652ZM7.57652 14.8806V17.3153H19.75V14.8806H7.57652ZM27.054 14.8806H31.9234C33.2644 14.8806 34.3581 15.9743 34.3581 17.3153V30.63C34.4056 32.6652 32.8459 34.2915 30.8107 34.3486C28.7089 34.3296 27.054 32.6842 27.054 30.5729V14.8806ZM7.57652 19.75V22.1847H19.75V19.75H7.57652ZM7.57652 24.6193V27.054H19.75V24.6193H7.57652Z" fill="black" fill-opacity="0.5"/>
  </g>
  <defs>
  <clipPath id="clip0_105_204">
  <rect width="38.955" height="38.955" fill="white" transform="translate(0.272461 0.272461)"/>
  </clipPath>
  </defs>
</svg>
